<svg width="180" height="180" viewBox="0 0 180 180" fill="none" xmlns="http://www.w3.org/2000/svg">
  <defs>
    <linearGradient id="genesisGrad" x1="0%" y1="0%" x2="100%" y2="100%">
      <stop offset="0%" stop-color="#6366f1" />
      <stop offset="50%" stop-color="#0ea5e9" />
      <stop offset="100%" stop-color="#10b981" />
    </linearGradient>
    <filter id="glow" x="-20%" y="-20%" width="140%" height="140%">
      <feGaussianBlur stdDeviation="8" result="blur" />
      <feComposite in="SourceGraphic" in2="blur" operator="over" />
    </filter>
  </defs>
  
  <rect width="180" height="180" rx="40" fill="#020617" />
  
  <g filter="url(#glow)">
    <path d="M115 90H95V105H105C102 115 92 120 80 120C60 120 45 105 45 85C45 65 60 50 80 50C92 50 102 55 108 65L122 55C112 40 98 30 80 30C48 30 25 55 25 85C25 115 48 140 80 140C108 140 125 120 125 90H115Z" fill="url(#genesisGrad)" />
    <path d="M135 40L142 58L160 65L142 72L135 90L128 72L110 65L128 58L135 40Z" fill="#38bdf8" />
  </g>
</svg>